# xmcd CD database file
#
# Track frame offsets:
#	150
#	13102
#	39284
#	57088
#	70452
#	100103
#	112523
#	141154
#	154309
#	170819
#	187117
#	205751
#
# Disc length: 2912 seconds
#
# Revision: 0
# Processed by: cddbd v1.5.1PL0 Copyright (c) Steve Scherf et al.
# Submitted via: CDex 1.51
#
DISCID=a20b5e0c
DTITLE=Mito LoëFfler - Swing For My Friends
DYEAR=1900
DGENRE=Jazz
TTITLE0=Them There Eyes
TTITLE1=Etrange Bolero
TTITLE2=Miri Pirni
TTITLE3=Voyages
TTITLE4=Dans La Brume
TTITLE5=Some Of These Days
TTITLE6=Je Suis Seul Ce Soir
TTITLE7=RaïSa Valse
TTITLE8=Minor Swing
TTITLE9=Swing For My Friends
TTITLE10=Swing 25
TTITLE11=Reverie Mineure
EXTD=
EXTT0=
EXTT1=
EXTT2=
EXTT3=
EXTT4=
EXTT5=
EXTT6=
EXTT7=
EXTT8=
EXTT9=
EXTT10=
EXTT11=
PLAYORDER=
